<svg width="381" height="70" viewBox="0 0 381 70" fill="none" xmlns="http://www.w3.org/2000/svg">
<g clip-path="url(#clip0_2010_434)">
<path fill-rule="evenodd" clip-rule="evenodd" d="M330.696 0.866884C328.908 1.38288 326.032 3.25488 324.304 5.02688C320.981 8.43388 291.264 64.6449 292.084 65.9709C292.348 66.3989 295.427 66.7479 298.926 66.7479C305.287 66.7479 305.287 66.7479 318.5 40.9979C325.767 26.8359 332.177 14.6629 332.744 13.9469C333.311 13.2309 335.135 12.7809 336.797 12.9469C339.673 13.2329 340.48 14.5299 353.486 39.7479C367.154 66.2479 367.154 66.2479 373.876 66.5449C379.886 66.8109 380.563 66.6529 380.272 65.0449C379.593 61.2979 351.07 7.52588 348.283 4.73888C343.85 0.305878 337.489 -1.09512 330.696 0.866884ZM0.0125258 2.63888C-0.319474 3.17688 5.98952 16.3589 14.0325 31.9329C29.6735 62.2169 32.8725 66.7089 40.1975 68.6809C46.9855 70.5089 55.3135 67.6509 58.8275 62.2879C63.1625 55.6719 89.4955 3.63788 88.9535 2.75988C88.6095 2.20388 85.4605 1.74788 81.9565 1.74788C75.5845 1.74788 75.5845 1.74788 61.7655 28.4979C47.9455 55.2479 47.9455 55.2479 44.5635 55.2479C41.1815 55.2479 41.1815 55.2479 27.4685 28.7479C13.7555 2.24788 13.7555 2.24788 7.18652 1.95388C3.57352 1.79288 0.345526 2.10088 0.0125258 2.63888ZM98.8995 3.00688C98.6335 3.69988 98.5355 18.4369 98.6805 35.7569C98.9455 67.2479 98.9455 67.2479 104.946 67.2479C110.946 67.2479 110.946 67.2479 111.21 34.4979C111.473 1.74788 111.473 1.74788 105.428 1.74788C101.491 1.74788 99.2145 2.18688 98.8995 3.00688ZM136.453 3.33388C123.125 9.14088 120.391 25.8059 131.104 35.9339C135.838 40.4089 138.123 40.7479 163.557 40.7479C187.537 40.7479 187.537 40.7479 189.991 43.2029C192.829 46.0399 193.083 48.3929 190.889 51.5249C189.339 53.7389 189.212 53.7479 158.971 53.7479C142.272 53.7479 127.898 54.0209 127.028 54.3549C125.835 54.8129 125.446 56.3999 125.446 60.8099C125.446 66.6569 125.446 66.6569 128.838 67.2939C130.704 67.6439 145.441 67.7709 161.588 67.5759C193.575 67.1899 193.898 67.1349 199.643 61.0869C207.206 53.1249 207.121 41.4229 199.446 33.7479C194.031 28.3329 190.634 27.7479 164.58 27.7479C142.779 27.7479 141.331 27.6329 139.446 25.7479C137.103 23.4049 136.866 19.9239 138.864 17.1889C140.203 15.3569 142.072 15.2199 172.114 14.7479C203.946 14.2479 203.946 14.2479 203.946 8.24788C203.946 2.24788 203.946 2.24788 171.946 2.02988C145.149 1.84688 139.378 2.05888 136.453 3.33388ZM218.156 2.37088C216.948 3.57888 217.332 47.6369 218.587 51.8259C220.153 57.0509 224.993 62.6379 229.875 64.8549C233.506 66.5039 236.839 66.7059 260.696 66.7259C287.446 66.7479 287.446 66.7479 287.446 60.7479C287.446 54.7479 287.446 54.7479 263.414 54.7479C237.508 54.7479 234.061 54.1939 231.692 49.6529C230.819 47.9779 230.363 40.4129 230.192 24.7479C229.946 2.24788 229.946 2.24788 224.406 1.95388C221.359 1.79288 218.547 1.97988 218.156 2.37088Z" fill="url(#paint0_linear_2010_434)"/>
</g>
<defs>
<linearGradient id="paint0_linear_2010_434" x1="249.5" y1="-14.5" x2="-1.75886e-06" y2="60" gradientUnits="userSpaceOnUse">
<stop stop-color="#EAEAEA"/>
<stop offset="1" stop-color="white"/>
</linearGradient>
<clipPath id="clip0_2010_434">
<rect width="381" height="70" fill="white"/>
</clipPath>
</defs>
</svg>
